<svg xmlns="http://www.w3.org/2000/svg" height="100px" width="100px" fill="red" viewBox="0 0 32 32"><defs><style>.cls-1{fill:#f26700;}.cls-2{fill:#fff;}</style></defs><path class="cls-1" d="M26.61,5.61a15.08,15.08,0,0,0-21.21,0,14.79,14.79,0,0,0,0,21,15.08,15.08,0,0,0,21.21,0,14.79,14.79,0,0,0,0-21M11.22,20.87a6.68,6.68,0,0,1,0-9.49,6.82,6.82,0,0,1,9.57,0,6.68,6.68,0,0,1,0,9.49,6.8,6.8,0,0,1-9.57,0"/><path class="cls-2" d="M24.1,19.55a8.62,8.62,0,0,0,0-6.85l3.42-2.49a12.87,12.87,0,0,1,0,11.83ZM22,4.71,19.46,8.1a8.88,8.88,0,0,0-6.91,0L10,4.71A13.07,13.07,0,0,1,22,4.71M4.49,10.21,7.91,12.7a8.73,8.73,0,0,0,0,6.85L4.49,22a12.81,12.81,0,0,1,0-11.83M10,27.54l2.51-3.39a8.88,8.88,0,0,0,6.91,0L22,27.55A13.1,13.1,0,0,1,16,29a13,13,0,0,1-6-1.45"/></svg>
