<svg height="100px" viewBox="-26 -26 853.37501 853.37501" width="100px" fill="red" stroke="black" xmlns="http://www.w3.org/2000/svg"><path d="m35.664062 604.871094-29.242187 29.242187c-5.234375 5.148438-8.171875 12.179688-8.171875 19.511719 0 7.34375 2.9375 14.371094 8.171875 19.523438l116.964844 116.96875c5.144531 5.222656 12.175781 8.171874 19.515625 8.171874s14.371094-2.949218 19.519531-8.171874l29.242187-29.246094zm265.242188-265.238282-245.796875 245.785157 156 156 245.792969-245.785157zm-29.242188 126.757813-138.484374 138.480469c-2.625 2.554687-6.132813 3.984375-9.792969 4-3.652344-.035156-7.160157-1.472656-9.792969-4-5.34375-5.378906-5.34375-14.066406 0-19.453125l138.484375-138.480469c5.421875-5.375 14.164063-5.375 19.585937 0 5.34375 5.382812 5.34375 14.066406 0 19.453125zm38.894532-39.039063c-2.519532 2.640626-6.003906 4.132813-9.652344 4.140626-5.578125-.035157-10.585938-3.402344-12.71875-8.546876-2.140625-5.144531-.984375-11.070312 2.921875-15.039062l9.796875-9.796875c5.375-5.347656 14.066406-5.347656 19.445312 0 5.382813 5.421875 5.382813 14.164063 0 19.585937zm0 0"/><path d="m284.351562 317.003906 16.554688-16.410156-16.554688 16.554688zm0 0"/><path d="m495.9375 495.632812-16.414062 16.542969h-.132813zm0 0"/><path d="m505.730469 446.9375-29.238281 29.242188-156.140626-156.132813 29.242188-29.242187c5.175781-5.179688 12.191406-8.09375 19.515625-8.09375s14.34375 2.914062 19.523437 8.09375l117.097657 117.101562c5.183593 5.179688 8.089843 12.195312 8.089843 19.519531 0 7.316407-2.90625 14.339844-8.089843 19.511719zm0 0"/><path d="m798.289062 329.835938-204.828124-29.242188 107.304687-204.828125-204.828125 107.3125-29.242188-204.828125-97.515624 175.585938-68.273438-87.859376-16.554688 231.027344v.144532l45.792969-45.796876c10.292969-10.410156 24.324219-16.269531 38.964844-16.269531 14.644531 0 28.675781 5.859375 38.964844 16.269531l117.105469 117.101563c10.414062 10.296875 16.277343 24.328125 16.277343 38.972656 0 14.632813-5.863281 28.667969-16.277343 38.964844l-45.789063 45.785156h.132813l231.035156-16.542969-87.855469-68.28125zm-228.144531 77.378906c-4.988281.039062-9.59375-2.660156-12.003906-7.035156-1.789063-3.195313-2.234375-6.976563-1.222656-10.503907 1.003906-3.527343 3.386719-6.496093 6.609375-8.253906l22.066406-12.273437-79.171875-11.308594c-4.402344-.699219-8.21875-3.398438-10.34375-7.316406-2.066406-3.976563-2.066406-8.710938 0-12.683594l41.238281-78.621094-78.617187 41.238281c-3.980469 2.058594-8.710938 2.058594-12.691407 0-3.914062-2.121093-6.617187-5.949219-7.308593-10.339843l-11.308594-79.175782-12.144531 21.925782c-3.691406 6.667968-12.089844 9.078124-18.753906 5.382812-6.664063-3.695312-9.078126-12.09375-5.382813-18.757812l32.140625-57.796876c2.90625-5.132812 8.75-7.851562 14.550781-6.757812s10.257813 5.753906 11.105469 11.585938l14.339844 100.417968 100.28125-52.554687c5.339844-2.800781 11.890625-1.804688 16.160156 2.464843 4.261719 4.269532 5.261719 10.8125 2.460938 16.160157l-52.554688 100.273437 100.414062 14.339844c5.839844.84375 10.5 5.308594 11.59375 11.101562 1.082032 5.804688-1.632812 11.648438-6.769531 14.5625l-57.925781 32.273438c-2.09375 1.082031-4.40625 1.648438-6.761719 1.652344zm0 0"/></svg>